# This file uses centimeters as units for non-parametric coordinates.

mtllib nnn.mtl
g default
v -30.807557 0.000000 135.857510
v 22.940311 0.000000 135.857510
v -30.807557 0.000000 101.149677
v 22.940311 0.000000 101.149677
v -30.807557 0.000000 26.107018
v 22.940311 0.000000 26.107018
v -83.844997 0.000000 101.149677
v -83.844997 0.000000 26.107018
v 59.746063 0.000000 101.149677
v 59.746063 0.000000 26.107018
v -30.807557 0.000000 19.963043
v 22.940311 0.000000 19.963043
v -83.844997 0.000000 19.963043
v -30.807557 0.000000 -38.111694
v 22.940311 0.000000 -38.111694
v -83.844997 0.000000 -38.111694
v 42.544822 -12.284463 19.963043
v 42.544822 -12.284463 -38.111694
v 106.306426 -12.284463 19.963043
v 106.306426 -12.284463 -38.111694
v 42.544822 -12.284463 -85.422992
v 106.306426 -12.284463 -85.422992
v -110.676948 0.000000 19.963043
v -110.676948 0.000000 -38.111694
v -60.762642 0.000000 -38.111694
v -60.762642 0.000000 19.963043
v -60.762642 0.000000 26.107018
v -60.762642 0.000000 101.149677
v -83.844997 0.000000 -43.861189
v -110.676948 0.000000 -43.861189
v -60.762642 0.000000 -43.861189
v -83.844997 21.714451 -105.205435
v -110.676948 21.714451 -105.205435
v -60.762642 21.714451 -105.205435
v -83.844997 21.714451 -177.594886
v -110.676948 21.714451 -177.594886
v -60.762642 21.714451 -177.594886
v 42.363579 21.714451 -105.205435
v 42.363579 21.714451 -177.594886
vt 0.320007 0.627067
vt 0.320007 0.388459
vt 0.360452 0.388459
vt 0.360452 0.627067
vt 0.447892 0.388459
vt 0.447892 0.627067
vt 0.360452 0.225067
vt 0.447892 0.225067
vt 0.455057 0.388459
vt 0.455057 0.627067
vt 0.447892 0.760051
vt 0.360452 0.760051
vt 0.522719 0.388459
vt 0.522719 0.627067
vt 0.455057 0.760051
vt 0.447892 0.862517
vt 0.360452 0.862517
vt 0.455057 0.301428
vt 0.522719 0.301428
vt 0.522719 0.760051
vt 0.455057 0.862517
vt 0.455057 0.018358
vt 0.522719 0.018358
vt 0.522719 0.862517
vt 0.577851 0.018358
vt 0.577851 0.301428
vt 0.529424 0.760051
vt 0.529424 0.862517
vt 0.522719 0.981642
vt 0.455057 0.981642
vt 0.600899 0.760051
vt 0.600899 0.862517
vt 0.529424 0.981642
vt 0.685253 0.760051
vt 0.685253 0.862517
vt 0.600899 0.981642
vt 0.600899 0.302235
vt 0.685253 0.302235
vt 0.685253 0.981642
vn 0.000000 1.000000 0.000000
vn 0.000000 1.000000 0.000000
vn 0.000000 1.000000 0.000000
vn 0.000000 1.000000 0.000000
vn 0.000000 1.000000 0.000000
vn 0.000000 1.000000 0.000000
vn 0.000000 1.000000 0.000000
vn 0.000000 1.000000 0.000000
vn 0.000000 1.000000 0.000000
vn 0.000000 1.000000 0.000000
vn 0.000000 1.000000 0.000000
vn 0.000000 1.000000 0.000000
vn 0.000000 1.000000 0.000000
vn 0.000000 1.000000 0.000000
vn 0.000000 1.000000 0.000000
vn 0.000000 1.000000 0.000000
vn 0.000000 1.000000 0.000000
vn 0.000000 1.000000 0.000000
vn 0.000000 1.000000 0.000000
vn 0.000000 1.000000 0.000000
vn 0.000000 1.000000 0.000000
vn 0.000000 1.000000 0.000000
vn 0.000000 1.000000 0.000000
vn 0.000000 1.000000 0.000000
vn 0.530982 0.847383 0.000000
vn 0.530982 0.847383 0.000000
vn 0.530982 0.847383 0.000000
vn 0.530982 0.847383 0.000000
vn 0.000000 1.000000 0.000000
vn 0.000000 1.000000 0.000000
vn 0.000000 1.000000 0.000000
vn 0.000000 1.000000 0.000000
vn 0.000000 1.000000 0.000000
vn 0.000000 1.000000 0.000000
vn 0.000000 1.000000 0.000000
vn 0.000000 1.000000 0.000000
vn 0.000000 1.000000 0.000000
vn 0.000000 1.000000 0.000000
vn 0.000000 1.000000 0.000000
vn 0.000000 1.000000 0.000000
vn 0.000000 1.000000 0.000000
vn 0.000000 1.000000 0.000000
vn 0.000000 1.000000 0.000000
vn 0.000000 1.000000 0.000000
vn 0.000000 0.951413 0.307918
vn 0.000000 0.951413 0.307918
vn 0.000000 0.951413 0.307919
vn 0.000000 0.942684 0.333688
vn 0.000000 0.942684 0.333688
vn 0.000000 0.942683 0.333688
vn 0.000000 1.000000 0.000000
vn 0.000000 1.000000 0.000000
vn 0.000000 1.000000 0.000000
vn 0.000000 1.000000 0.000000
vn 0.000000 1.000000 0.000000
vn 0.000000 1.000000 0.000000
vn 0.000000 1.000000 0.000000
vn 0.000000 1.000000 0.000000
vn 0.000000 1.000000 0.000000
vn 0.000000 1.000000 0.000000
vn 0.000000 1.000000 0.000000
vn 0.000000 1.000000 0.000000
s 1
g pasted__pPlane1 group
usemtl initialShadingGroup
f 1/1/1 2/2/2 4/3/3 3/4/4
f 3/4/4 4/3/3 6/5/5 5/6/6
s 2
f 3/4/7 5/6/8 27/11/9 28/12/10
s off
f 6/5/11 4/3/12 9/7/13 10/8/14
s 3
f 5/6/15 6/5/16 12/9/17 11/10/18
f 27/11/19 5/6/20 11/10/18 26/15/21
f 11/10/18 12/9/17 15/13/22 14/14/23
f 26/15/21 11/10/18 14/14/23 25/20/24
s off
f 15/13/25 12/9/26 17/18/27 18/19/28
f 18/19/29 17/18/30 19/22/31 20/23/32
f 18/19/33 20/23/34 22/25/35 21/26/36
s 3
f 13/21/37 16/24/38 24/29/39 23/30/40
f 13/21/41 26/15/21 25/20/24 16/24/38
f 8/16/42 27/11/19 26/15/21 13/21/41
s 2
f 28/12/10 27/11/9 8/16/43 7/17/44
s 3
f 24/29/39 16/24/38 29/28/45 30/33/46
f 16/24/38 25/20/24 31/27/47 29/28/45
f 30/33/46 29/28/45 32/32/48 33/36/49
f 29/28/45 31/27/47 34/31/50 32/32/48
s off
f 33/36/51 32/32/52 35/35/53 36/39/54
f 32/32/55 34/31/56 37/34/57 35/35/58
f 37/34/59 34/31/60 38/37/61 39/38/62
